<?xml version="1.0" encoding="utf-8"?>
<!-- Generator: Adobe Illustrator 24.1.2, SVG Export Plug-In . SVG Version: 6.00 Build 0)  -->
<svg version="1.1" id="Layer_1" xmlns="http://www.w3.org/2000/svg" xmlns:xlink="http://www.w3.org/1999/xlink" x="0px" y="0px"
	 viewBox="0 0 951.83 177.67" style="enable-background:new 0 0 951.83 177.67;" xml:space="preserve">
<style type="text/css">
	.st0{fill:#FFFFFF;}
</style>
<g>
	<path class="st0" d="M293.4,30.54c0,3.96-3.96,7.33-11.88,10.12c-7.92,2.79-17.45,4.18-28.6,4.18c-14.54,0-32.36-2.22-53.45-6.67
		c-10.26,4.85-19.69,12.22-28.3,22.12c-8.6,9.9-17.96,24.14-28.06,42.72c5.01,0.81,9.17,1.45,12.48,1.94
		c4.52-10.42,10.99-15.63,19.39-15.63c5.74,0,8.6,2.22,8.6,6.67c0,3.56-1.92,6.44-5.76,8.66c-3.84,2.22-8.87,3.33-15.09,3.33h-2.42
		c-0.24,0.32-1.25,2.46-3.03,6.42c-2.02,4.69-4.93,8.66-8.73,11.94c-3.8,3.27-7.35,4.91-10.66,4.91c-1.13,0-1.7-0.24-1.7-0.73
		c0-0.4,0.4-0.73,1.21-0.97c5.57-1.7,11.23-9.17,16.97-22.42c-2.34-0.24-5.74-0.73-10.18-1.45l-2.3-0.48
		c-1.13,2.02-2.79,5.01-4.97,8.97c-6.95,12.44-12.59,21.33-16.91,26.66c-4.32,5.33-10.16,10.58-17.51,15.76
		c-19.55,13.74-39.75,20.6-60.6,20.6c-12.28,0-22.34-2.57-30.18-7.7C3.92,164.36,0,157.75,0,149.67c0-4.04,1.19-7.49,3.58-10.36
		c2.38-2.87,5.23-4.3,8.54-4.3c5.33,0,8,2.71,8,8.12c0,2.51-0.83,4.67-2.48,6.48c-1.66,1.82-3.66,2.73-6,2.73
		c-3.96,0-5.94-1.9-5.94-5.7c0.24-1.94,0-2.91-0.73-2.91c-1.54,0-2.3,2.14-2.3,6.42c0,6.79,3.53,12.59,10.6,17.39
		c7.07,4.81,15.61,7.21,25.63,7.21c15.75,0,29.93-4.71,42.54-14.12c12.6-9.41,26.42-25.67,41.45-48.78c1.29-1.86,3.19-4.73,5.7-8.6
		h-2.3c-9.05,0-15.31,3.47-18.78,10.42c-0.41,1.13-0.85,1.7-1.33,1.7c-0.65,0-0.97-0.32-0.97-0.97c0-3.23,2.28-6.28,6.85-9.15
		c4.56-2.87,9.39-4.3,14.48-4.3h3.51c21.17-31.99,43.34-53.16,66.53-63.5c-6.22-1.37-12.69-2.95-19.39-4.73
		c-21.65-5.65-38.46-8.48-50.42-8.48c-2.42,0-4.73,0.08-6.91,0.24c3.47,6.71,5.21,14.26,5.21,22.66c0,17.61-6.89,34.22-20.66,49.81
		c-13.78,15.59-28.5,23.39-44.17,23.39c-6.63,0-12-2.08-16.12-6.24c-4.12-4.16-6.18-9.59-6.18-16.3c0-15.27,7.94-30.72,23.81-46.36
		c15.88-15.63,33.59-25.51,53.14-29.63c-6.14-9.13-15.55-13.69-28.24-13.69c-20.77,0-39.55,10.1-56.35,30.3
		c-1.37,1.37-2.14,2.06-2.3,2.06c-0.48,0-0.81-0.28-0.97-0.85c0-1.45,3.39-5.33,10.18-11.63C52.88,13.45,69.08,6.18,85.8,6.18
		c14.87,0,25.65,5.05,32.36,15.15c8.56-2.18,18.54-3.27,29.93-3.27c7.19,0,13.82,0.57,19.88,1.7c6.06,1.13,20.64,4.44,43.75,9.94
		c18.02-6.95,34.9-10.42,50.66-10.42c9.29,0,16.78,1.03,22.48,3.09C290.56,24.42,293.4,27.15,293.4,30.54z M120.59,41.45
		c0-5.41-1.33-10.87-4-16.36C98,27.43,80.59,36.3,64.35,51.69C48.11,67.08,39.99,82.37,39.99,97.56c0,5.66,1.8,10.46,5.39,14.42
		c3.59,3.96,8.06,5.94,13.39,5.94c14.06,0,27.87-8.42,41.45-25.27C113.8,75.8,120.59,58.74,120.59,41.45z M181.42,96.23
		c0-3.47-1.98-5.21-5.94-5.21c-5.25,0-9.74,4.16-13.45,12.48l-0.97,2.18h3.03c5.01,0,9.15-0.89,12.42-2.67
		C179.79,101.24,181.42,98.97,181.42,96.23z M291.1,30.78c0-2.5-2.65-4.67-7.94-6.48c-5.29-1.82-11.66-2.73-19.09-2.73
		c-17.61,0-33.77,3.07-48.48,9.21l16.24,3.64c13.57,3.15,26.06,4.73,37.45,4.73c5.82,0,10.91-0.85,15.27-2.55
		C288.92,34.9,291.1,32.96,291.1,30.78z"/>
	<path class="st0" d="M241.11,133.98c0,0.65-2.43,3.61-7.28,8.88c-6.15,6.81-11.94,10.21-17.36,10.21c-6.15,0-9.23-3.55-9.23-10.66
		c0-2.26,0.48-5.13,1.45-8.6c-5.09,4.44-9.23,8.85-12.42,13.21c-3.19,4.36-8.71,13.25-16.54,26.66c-4.28-0.32-6.79-0.48-7.51-0.48
		c-0.32,0-2.79,0.16-7.39,0.48l19.88-32.24c9.94-16.16,14.91-26.18,14.91-30.06c0-2.26-0.93-3.39-2.79-3.39
		c-4.53,0-12.75,8.7-24.65,26.11c-0.73,1.13-1.38,1.7-1.94,1.7c-0.32-0.08-0.48-0.32-0.48-0.73c0.08-0.41,0.24-0.73,0.48-0.97
		l2.19-3.04c12.46-16.6,20.92-24.9,25.37-24.9c6.47,0,9.71,4.16,9.71,12.48c0,6.22-3.31,14.46-9.94,24.72
		c4.2-4.85,8.2-8.81,12-11.88c3.07-7.19,6.89-13.21,11.45-18.06c4.56-4.85,8.67-7.27,12.3-7.27c2.5,0,3.76,1.09,3.76,3.27
		c0,3.88-5.62,9.41-16.85,16.6c-1.78,1.13-4.44,2.79-8,4.97l-1.45,1.21c-1.13,3.72-1.7,6.79-1.7,9.21c0,6.79,2.55,10.18,7.65,10.18
		c6.31,0,13.19-5.23,20.64-15.69c1.62-1.78,2.63-2.67,3.04-2.67C240.87,133.25,241.11,133.49,241.11,133.98z"/>
	<path class="st0" d="M312.73,133.86c0,1.29-2.39,4.31-7.16,9.06c-7.12,7.09-13.66,10.63-19.65,10.63c-2.51,0-4.73-0.48-6.67-1.45
		c-10.67,15.11-20.7,22.66-30.08,22.66c-4.85,0-9-2-12.43-6c-3.44-4-5.15-8.79-5.15-14.36c0-12.44,8.16-24.44,24.48-35.99
		c11.47-8.16,20.92-12.24,28.36-12.24c6.95,0,10.42,3.72,10.42,11.15c0,9.29-4.89,20.48-14.66,33.57c1.62,0.97,3.43,1.45,5.45,1.45
		c3.64,0,7.88-1.69,12.74-5.07c4.86-3.38,8.83-7.45,11.91-12.2c0.89-1.13,1.54-1.69,1.95-1.69
		C312.57,133.37,312.73,133.53,312.73,133.86z M293.04,117.56c0-6.54-2.95-9.82-8.85-9.82c-7.35,0-16.32,7.03-26.9,21.09
		c-10.59,14.06-15.88,25.89-15.88,35.51c0,5.57,2.67,8.36,8,8.36c8.73,0,18.26-7.19,28.6-21.57c-2.34-2.58-3.51-5.25-3.51-8
		c0-3.96,1.58-8.04,4.73-12.24c3.15-4.2,6.22-6.3,9.21-6.3c1.29,0,2.18,0.81,2.67,2.42C292.39,124.18,293.04,121.03,293.04,117.56z"
		/>
	<path class="st0" d="M353.88,86.95c0,3.22-5.05,9.63-15.15,19.21c-0.48,2.51-0.73,4.69-0.73,6.54c0,4.69,2.14,12.12,6.42,22.3
		c2.18,5.09,3.27,9.37,3.27,12.85c0,7.27-3.54,13.57-10.6,18.91c-7.07,5.33-15.45,8-25.15,8c-5.5,0-9.88-1.56-13.15-4.67
		c-3.27-3.11-4.91-7.29-4.91-12.54c0-6.06,2.16-11.96,6.48-17.69c4.32-5.74,8.79-8.6,13.39-8.6c0.81,0,1.53,0.16,2.18,0.48
		l9.7-11.88c2.91-3.47,6.79-8.28,11.63-14.42c1.37-5.65,3.47-10.5,6.3-14.54c2.83-4.04,5.61-6.06,8.36-6.06
		C353.23,84.83,353.88,85.54,353.88,86.95z M337.03,134.76c0-2.42-0.08-4.83-0.24-7.21c-0.16-2.38-0.24-5.8-0.24-10.24
		c0-3.64,0.16-6.67,0.48-9.09c-4.53,5.74-11.07,13.82-19.63,24.24c1.53,1.29,2.3,2.87,2.3,4.73c0,4.77-3.92,8-11.76,9.7
		c-3.15,0.73-5.88,2.44-8.18,5.15c-2.3,2.71-3.45,5.56-3.45,8.54c0,3.23,1.17,5.94,3.51,8.12c2.34,2.18,5.25,3.27,8.73,3.27
		c6.79,0,13.23-3.94,19.33-11.82C333.98,152.28,337.03,143.81,337.03,134.76z"/>
	<path class="st0" d="M405.99,106.16l-0.97,1.82h-15.88l-27.03,46.17c-3.31,5.57-4.97,10.02-4.97,13.33c0,3.64,1.9,5.45,5.7,5.45
		c7.36,0,19.78-12.83,37.26-38.48c0.57-0.81,1.05-1.21,1.46-1.21c0.48,0,0.73,0.24,0.73,0.73c-0.08,0.24-0.48,0.89-1.21,1.94
		l-5.22,7.16c-15.21,21.12-26.65,31.68-34.34,31.68c-3.8,0-6.98-1.38-9.52-4.12c-2.55-2.75-3.82-6.18-3.82-10.3
		c0-4.85,2.14-10.91,6.42-18.18l20.36-34.18H362.6l1.21-1.82h12.12l14.18-23.51c2.42,0.65,4.73,0.97,6.91,0.97
		c2.26,0,4.61-0.32,7.03-0.97l-13.94,23.51H405.99z"/>
	<path class="st0" d="M463.37,134.1c0,0.24-0.73,1.29-2.18,3.15l-5.22,6.53c-16.74,20.65-31.09,30.98-43.06,30.98
		c-5.66,0-10.41-2.04-14.25-6.12c-3.84-4.08-5.76-9.19-5.76-15.33c0-14.54,10.14-27.35,30.42-38.42
		c10.66-5.82,19.35-8.73,26.06-8.73c2.91,0,5.39,0.87,7.45,2.61c2.06,1.74,3.09,3.86,3.09,6.36c0,5.82-3.8,10.77-11.39,14.85
		c-7.6,4.08-20.28,7.9-38.05,11.45c-5.5,8.32-8.24,15.27-8.24,20.84c0,6.95,3.76,10.42,11.28,10.42c12.78,0,28.43-12.46,46.95-37.39
		c0.97-1.29,1.78-1.94,2.43-1.94C463.21,133.45,463.37,133.69,463.37,134.1z M453.13,111.62c0-2.58-1.41-3.88-4.24-3.88
		c-4.28,0-9.92,2.97-16.91,8.91c-6.99,5.94-13.84,13.63-20.54,23.09c11.63-2.99,21.49-7.21,29.57-12.67
		C449.09,121.62,453.13,116.46,453.13,111.62z"/>
	<path class="st0" d="M573.35,49.32c-30.3,48.15-49.41,78.94-57.32,92.35c-8,13.66-12,22.26-12,25.81c0,3.64,1.66,5.45,4.98,5.45
		c7.36,0,19.86-12.83,37.5-38.48c0.48-0.81,0.93-1.21,1.34-1.21c0.48,0,0.73,0.24,0.73,0.73c-0.08,0.24-0.48,0.89-1.21,1.94
		l-5.22,7.16c-15.29,21.12-26.57,31.68-33.85,31.68c-3.72,0-6.76-1.39-9.1-4.18c-2.35-2.79-3.52-6.36-3.52-10.73
		c0-4.36,1.45-9.41,4.36-15.15c-14.14,20.04-24.64,30.06-31.51,30.06c-4.28,0-7.88-1.84-10.79-5.51s-4.36-8.3-4.36-13.88
		c0-13.33,8.28-25.41,24.84-36.24c13.17-8.64,23.51-12.97,31.02-12.97c5.01,0,7.51,2.42,7.51,7.27c0,2.26-0.69,4.81-2.06,7.64
		l43.27-72.47c2.67,0.81,5.29,1.21,7.88,1.21C566.49,49.81,568.99,49.65,573.35,49.32z M514.94,114.4c0-4.28-1.98-6.42-5.94-6.42
		c-7.27,0-16.87,7.25-28.78,21.75c-11.92,14.5-17.88,26.2-17.88,35.08c0,5.41,2.22,8.12,6.67,8.12c6.46,0,17.57-11.23,33.33-33.69
		C510.74,127.13,514.94,118.85,514.94,114.4z"/>
	<path class="st0" d="M908.93,41.69c0,12.93-7.8,23.75-23.39,32.48c-6.79,3.8-11.43,5.7-13.94,5.7c-0.65,0-0.97-0.32-0.97-0.97
		c0-0.4,1.17-1.05,3.51-1.94c9.05-3.55,16.44-8.62,22.18-15.21c5.74-6.58,8.6-13.35,8.6-20.3c0-6.46-2.22-11.71-6.67-15.76
		c-4.44-4.04-10.26-6.06-17.45-6.06c-23.11,0-43.79,13.29-62.05,39.87c-3.15,4.6-12.72,22.34-28.72,53.2
		c-17.37,33.21-37.81,53.61-61.32,61.2c7.03,0.89,12.56,1.33,16.6,1.33c14.7,0,27.19-4.81,37.45-14.42
		c8.89-8.24,16.93-17.85,24.12-28.84c0.89-1.13,1.53-1.7,1.94-1.7c0.32,0.08,0.48,0.24,0.48,0.48c0,0.81-3.8,6.1-11.39,15.88
		c-8.97,11.55-17.19,19.49-24.66,23.81c-7.47,4.32-16.62,6.48-27.45,6.48c-6.71,0-13.98-0.57-21.81-1.7
		c-5.98,1.62-11.43,2.42-16.36,2.42c-4.2,0-6.3-0.89-6.3-2.67c0-2.02,3.31-3.03,9.94-3.03c3.72,0,8.36,0.48,13.94,1.45
		c10.66-4.69,18.78-10.46,24.36-17.33c5.98-7.43,14.91-22.98,26.78-46.66l1.94-4h-47.14c-7.59,14.14-14.18,24.6-19.75,31.39
		c-5.57,6.79-13.05,13.37-22.42,19.75c-20.6,14.06-40.48,21.09-59.63,21.09c-11.15,0-20.22-2.36-27.21-7.09
		c-6.99-4.73-10.48-10.89-10.48-18.48c0-3.96,1.17-7.39,3.51-10.3c2.34-2.91,5.21-4.36,8.6-4.36c5.25,0,7.88,2.67,7.88,8
		c0,2.59-0.81,4.81-2.42,6.67c-1.62,1.86-3.63,2.79-6.06,2.79c-3.8,0-5.7-1.9-5.7-5.7c0.24-2.02,0-3.03-0.73-3.03
		c-1.45,0-2.18,2.14-2.18,6.42c0,6.63,3.11,12.06,9.34,16.3c6.22,4.24,14.19,6.36,23.89,6.36c17.06,0,31.99-5.07,44.81-15.21
		c12.81-10.14,27.34-28.34,43.59-54.6h-37.23l0.97-2.42h37.84c0.97-1.62,2.63-4.2,4.97-7.76c16.98-27.47,32.94-46.66,47.9-57.57
		c3.15-2.34,7.35-4.87,12.61-7.57c5.25-2.71,8.49-4.06,9.7-4.06c0.48,0.16,0.73,0.48,0.73,0.97c0,0.48-0.81,1.05-2.42,1.7
		c-9.94,4.04-18.83,10.99-26.66,20.84c-7.84,9.86-18.58,27.67-32.24,53.45h47.26c15.11-26.98,31.53-47.97,49.26-62.96
		c17.73-14.99,35.04-22.48,51.93-22.48c8.32,0,15.09,2.24,20.3,6.73C906.33,28.78,908.93,34.58,908.93,41.69z M751.75,44.6
		c0,1.7-2.38,5.09-7.15,10.18c-7.11,7.68-13.9,11.51-20.36,11.51c-4.6,0-8.44-1.64-11.51-4.91c-3.07-3.27-4.6-7.29-4.6-12.06
		c0-4.44,1.65-9.98,4.97-16.6c4.12-8.24,6.18-13.94,6.18-17.09c0-4.12-1.94-7.43-5.82-9.94c-3.88-2.5-8.97-3.76-15.27-3.76
		c-18.02,0-34.94,7.25-50.78,21.75c-15.84,14.5-23.75,29.99-23.75,46.48c0,8.48,2.58,15.41,7.76,20.79
		c5.17,5.37,11.88,8.06,20.12,8.06c15.92,0,29.33-7.35,40.24-22.06c0.16-0.48,0.4-0.77,0.73-0.85c0.65,0,0.97,0.36,0.97,1.09
		c0,1.7-2.59,4.81-7.76,9.33c-10.66,9.62-22.22,14.42-34.66,14.42c-8.73,0-15.84-2.83-21.33-8.48c-5.5-5.65-8.24-13.01-8.24-22.06
		c0-17.45,8.1-33.55,24.3-48.29C661.96,7.37,679.68,0,698.91,0c16.88,0,25.33,7.43,25.33,22.3c0,5.09-1.74,11.19-5.21,18.3
		c-3.48,7.11-5.21,11.84-5.21,14.18c0,6.14,3.31,9.21,9.94,9.21c4.04,0,8.64-1.9,13.82-5.7c5.17-3.8,9.17-8.28,12-13.45
		c0.4-0.81,0.81-1.21,1.21-1.21C751.42,43.63,751.75,43.95,751.75,44.6z"/>
	<path class="st0" d="M848.28,133.98c-0.08,0.24-0.48,0.89-1.21,1.94l-5.22,7.16c-15.21,21.12-26.81,31.68-34.82,31.68
		c-3.8,0-6.98-1.35-9.53-4.06c-2.55-2.71-3.82-6.08-3.82-10.12c0-4.69,2.79-11.8,8.36-21.33l18.91-32.12
		c2.5,0.57,4.48,0.85,5.94,0.85c2.18,0,5.25-0.28,9.21-0.85l-27.51,45.21c-3.96,6.54-5.94,11.59-5.94,15.15
		c0,3.64,1.9,5.45,5.7,5.45c7.2,0,19.86-12.83,37.98-38.48c0.41-0.81,0.81-1.21,1.21-1.21
		C848.03,133.25,848.28,133.49,848.28,133.98z M846.52,83.86c0,2.83-1.19,5.47-3.58,7.94c-2.38,2.46-4.99,3.7-7.82,3.7
		c-3.64,0-5.45-1.82-5.45-5.45c0-2.67,1.25-5.23,3.76-7.7c2.5-2.46,5.13-3.7,7.88-3.7C844.78,78.65,846.52,80.39,846.52,83.86z"/>
	<path class="st0" d="M912.08,48.11c-33.93,56.48-53.71,89.68-59.32,99.62c-5.62,9.94-8.42,16.52-8.42,19.75
		c0,3.64,1.54,5.45,4.61,5.45c6.8,0,19.26-12.83,37.38-38.48c0.4-0.81,0.89-1.21,1.46-1.21c0.32,0.08,0.48,0.32,0.48,0.73
		c0,0.49-0.41,1.13-1.21,1.94l-5.22,7.16c-15.29,21.12-26.57,31.68-33.85,31.68c-3.48,0-6.33-1.31-8.55-3.94
		c-2.22-2.62-3.34-5.96-3.34-10c0-4.44,1.03-8.75,3.09-12.91c2.06-4.16,9.07-16.18,21.03-36.05c14.62-24.32,26.94-45.41,36.96-63.26
		c2.42,0.65,4.56,0.97,6.42,0.97C906.67,49.57,909.5,49.08,912.08,48.11z"/>
	<path class="st0" d="M951.83,48.11c-33.93,56.48-53.71,89.68-59.32,99.62c-5.62,9.94-8.42,16.52-8.42,19.75
		c0,3.64,1.54,5.45,4.61,5.45c6.8,0,19.26-12.83,37.38-38.48c0.4-0.81,0.89-1.21,1.46-1.21c0.32,0.08,0.48,0.32,0.48,0.73
		c0,0.49-0.41,1.13-1.21,1.94l-5.22,7.16c-15.29,21.12-26.57,31.68-33.85,31.68c-3.48,0-6.33-1.31-8.55-3.94
		c-2.22-2.62-3.34-5.96-3.34-10c0-4.44,1.03-8.75,3.09-12.91c2.06-4.16,9.07-16.18,21.03-36.05c14.62-24.32,26.94-45.41,36.96-63.26
		c2.42,0.65,4.56,0.97,6.42,0.97C946.42,49.57,949.25,49.08,951.83,48.11z"/>
</g>
</svg>
